<svg width="512" height="512" xmlns="http://www.w3.org/2000/svg">

 <g>
  <title>background</title>
  <rect fill="none" id="canvas_background" height="402" width="582" y="-1" x="-1"/>
 </g>
 <g>
  <title>Layer 1</title>
  <path fill="#ffffff" stroke="#ffffff" id="svg_3" d="m508.583,109.488c-2.438,-2.229 -5.771,-3.229 -9,-2.688c-23,3.823 -93.042,15.438 -121.417,1.01c-7.081,-3.6 -15.505,-8.393 -24.522,-13.804l17.585,-23.656c3.5,-4.719 2.542,-11.375 -2.167,-14.896l-42.667,-32.001c-4.667,-3.49 -11.292,-2.583 -14.875,2.063l-21.173,27.733c-16.307,-10.996 -27.926,-19.124 -28.223,-19.337c-4.667,-3.271 -11.167,-2.281 -14.667,2.344l-64,85.336c-1.708,2.292 -2.438,5.167 -2,8s1.979,5.375 4.292,7.042c0,0 10.896,7.857 26.408,19.08l-204.115,267.503c-5.188,6.76 -8.042,15.177 -8.042,23.709l0,4.677c0,21.542 17.521,39.064 39.063,39.064c12.292,0 24.021,-5.886 31.354,-15.75l203.818,-274.121c10.845,7.917 20.9,15.288 28.745,21.102c17.063,12.625 31.687,55.356 39.146,114.295c0.438,3.417 2.5,6.427 5.542,8.052c1.563,0.844 3.313,1.271 5.042,1.271c1.625,0 3.25,-0.365 4.729,-1.104c86.896,-43.043 146.104,-129.702 154.521,-226.163c0.29,-3.282 -0.96,-6.521 -3.377,-8.761zm-186.52,-62.613l25.708,19.281l-12.354,16.617c-9.216,-5.815 -18.512,-11.853 -27.289,-17.647l13.935,-18.251zm-268.771,415.313c-3.333,4.479 -8.646,7.146 -14.229,7.146c-9.771,0 -17.729,-7.958 -17.729,-17.729l0,-4.677c0,-3.865 1.292,-7.677 3.646,-10.75l204.46,-267.938c8.822,6.393 18.22,13.215 27.55,20l-203.698,273.948zm295.461,-199.293c-7.531,-24.503 -18.085,-47.031 -33.065,-58.134c-28.813,-21.333 -86.604,-63.135 -108.646,-79.052l51.313,-68.417c21.438,14.792 77.875,53.146 110.146,69.552c15.815,8.031 39.391,9.885 64.348,8.928c-10.328,51.975 -40.241,97.171 -84.096,127.123zm12.393,55.386c-1.618,-10.449 -3.779,-22.016 -6.507,-33.727c53.458,-34.027 89.462,-87.977 100.194,-150.212c11.733,-1.109 23.38,-2.616 34.313,-4.27c-11.208,78.647 -58.938,148.793 -128,188.209z"/>
 </g>
</svg>